<svg width="176" height="47" viewBox="0 0 176 47" xmlns="http://www.w3.org/2000/svg"><g fill="#F1592B" fill-rule="evenodd"><path d="M171.1 9.9c-.3-.4-.5-.8-.7-.9-.2-.2-.4-.3-.6-.5.5-.1.9-.2 1.1-.5.3-.3.4-.6.4-1.1 0-.3-.1-.6-.2-.9-.2-.3-.4-.4-.7-.5-.3-.1-.7-.2-1.3-.2h-2.4V11h1.2V8.6h.2c.3 0 .5 0 .6.1.1 0 .2.1.3.2.1.1.3.4.6.8l.8 1.2h1.4l-.7-1zm-2.4-2.2h-.9V6.2H169.5c.2 0 .3.1.4.2.1.1.2.3.2.5s0 .3-.1.4c-.1.1-.2.2-.3.2-.1.2-.5.2-1 .2zM23.4 31.3H11.9c-.2 0-.4-.1-.5-.3-.1-.2-.1-.4.1-.6 0 0 11.4-12 12.5-13.2 1.1-1.2 1.3-3 .6-4.5-.7-1.5-2.2-2.4-3.8-2.4H.6c-.1 0-.3.1-.4.2-.1.1-.1.3-.1.4.2 1.8.8 3.7 1.7 5.2.2.3.5.5.9.5h11.1c.2 0 .4.1.5.3.1.2.1.4-.1.6 0 0-11.3 12-12.4 13.3-1.1 1.2-1.3 3-.6 4.5.7 1.5 2.2 2.4 3.8 2.4h20.4c.1 0 .3-.1.4-.2.1-.1.1-.3.1-.4-.2-1.8-.8-3.8-1.7-5.3-.1-.3-.4-.5-.8-.5zM55 9.2c-8.2 0-14.8 6.6-14.8 14.8 0 8.1 6.6 14.8 14.8 14.8 8.2 0 14.8-6.6 14.8-14.8 0-8.1-6.6-14.8-14.8-14.8zm0 23c-4.5 0-8.2-3.7-8.2-8.2 0-4.5 3.7-8.2 8.2-8.2 4.5 0 8.2 3.7 8.2 8.2 0 4.5-3.7 8.2-8.2 8.2zm-12.6 9.1c-4.8-3.2-8-8.2-8.9-13.8h3.2c.2 0 .5-.2.5-.4.4-1.8.4-4.4 0-6.2-.1-.2-.3-.4-.5-.4h-3.2c.9-5.6 4.1-10.5 8.9-13.8.2-.1.4-.5.3-.7-.5-1.6-1.8-3.9-3.1-4.9-.2-.2-.6-.2-.8 0C31.1 6.2 26.5 14.7 26.5 24c0 9.2 4.6 17.8 12.3 22.9.2.1.6.2.8 0 1.3-1 2.7-3.3 3.1-4.9 0-.3-.1-.6-.3-.7zm94.2-23.6h-1.8c-.1 0-.3.1-.3.3v7.9l-5.8-7.7c-.3-.3-.7-.5-1.1-.5h-.9c-.1 0-.3.1-.3.3v12c0 .1.1.3.3.3h1.8c.1 0 .3-.1.3-.3v-8l5.8 7.7c.3.3.7.5 1.1.5h.9c.1 0 .3-.1.3-.3V18c0-.2-.1-.3-.3-.3zm13.1 9.5c-.5-.4-1.2-.4-1.6 0-.7.5-1.5.8-2.5.8-2.3 0-4.1-1.8-4.1-4.1 0-2.2 1.8-4.1 4.1-4.1.9 0 1.8.3 2.5.8.5.4 1.2.4 1.6 0l.7-.6c.1 0 .1-.1.1-.2s0-.1-.1-.2c-1.2-1.4-2.9-2.2-4.9-2.2-3.6 0-6.4 2.9-6.4 6.4 0 3.5 2.9 6.4 6.4 6.4 1.9 0 3.7-.9 4.9-2.2 0-.1.1-.1.1-.2s0-.1-.1-.2l-.7-.4zm-52-12.8c.1-.1.1-.3 0-.4l-.7-.7c-.3-.3-.6-.4-1-.4s-.7.2-1 .5c-5.1 6.1-5.1 15.1 0 21.2.2.3.6.5 1 .5s.7-.1 1-.4l.7-.7c.1-.1.1-.3 0-.4-5.2-5.3-5.2-13.9 0-19.2zm5.6 0c.1-.1.1-.3 0-.4l-.7-.7c-.3-.3-.6-.4-1-.4s-.7.2-1 .5c-5.1 6.1-5.1 15.1 0 21.2.2.3.6.5 1 .5s.7-.1 1-.4l.7-.7c.1-.1.1-.3 0-.4-5.1-5.3-5.1-13.9 0-19.2zm2.7 3c-.4 0-.8.1-1.1.4l-.7.7c-.1.1-.1.3 0 .4 1.3 1.4 2 3.2 2 5.2 0 1.9-.7 3.8-2 5.2-.1.1-.1.3 0 .4l.7.7c.3.3.7.4 1.1.4.4 0 .7-.2 1-.5 1.3-1.7 2-3.8 2-6s-.7-4.3-2-6c-.3-.6-.7-.8-1-.9zm55.8.3H153c-.1 0-.3.1-.3.3v12c0 .1.1.3.3.3h8.9c.1 0 .3-.1.3-.3v-1.8c0-.1-.1-.3-.3-.3H155v-3h5.7c.1 0 .3-.1.3-.3v-1.5c0-.1-.1-.3-.3-.3H155v-3h6.8c.1 0 .3-.1.3-.3V18c0-.2-.1-.3-.3-.3zm-42.9.8c-.2-.5-.7-.8-1.2-.8h-1.5c-.1 0-.2.1-.2.2l-5.3 12v.3c0 .1.1.1.2.1h2.2c.1 0 .2-.1.2-.2l3.9-8.9 1.8 4.1h-.9c-.5 0-1 .3-1.2.8l-.4.9v.3c0 .1.1.1.2.1h3.2l.9 2.2c.2.5.7.8 1.2.8h1.5c.1 0 .2 0 .2-.1s.1-.2 0-.3l-4.8-11.5zm-34.5 0c-.2-.5-.7-.8-1.2-.8h-1.5c-.1 0-.2.1-.2.2l-5.3 12v.3c0 .1.1.1.2.1h2.2c.1 0 .2-.1.2-.2l3.9-8.9 1.8 4.1h-.9c-.5 0-1 .3-1.2.8l-.4.9v.3c0 .1.1.1.2.1h3.2l.9 2.2c.2.5.7.8 1.2.8H89c.1 0 .2 0 .2-.1s.1-.2 0-.3l-4.8-11.5z"/><path d="M169 14.9a6.7 6.7 0 1 1 0-13.4 6.7 6.7 0 0 1 0 13.4zm0-12.2c-3 0-5.4 2.4-5.4 5.4 0 3 2.4 5.4 5.4 5.4 3 0 5.4-2.4 5.4-5.4 0-3-2.4-5.4-5.4-5.4z"/></g></svg>